<?xml version="1.0" standalone="no"?><!DOCTYPE svg PUBLIC "-//W3C//DTD SVG 1.1//EN" "http://www.w3.org/Graphics/SVG/1.1/DTD/svg11.dtd"><svg t="1754984017857" class="icon" viewBox="0 0 1080 1024" version="1.1" xmlns="http://www.w3.org/2000/svg" p-id="1636" xmlns:xlink="http://www.w3.org/1999/xlink" width="210.9375" height="200"><path d="M328.391111 589.397333h-16.241778c-83.968 0-152.007111-69.973333-152.007111-156.302222v-276.764444C160.142222 69.973333 228.181333 0 312.149333 0h16.213334c83.968 0 152.035556 69.973333 152.035555 156.302222v278.158222c0 86.328889-68.067556 156.302222-152.007111 156.302223v-1.365334z m241.408 20.280889a40.760889 40.760889 0 0 0-50.346667 1.507556 280.263111 280.263111 0 0 1-190.691555 68.778666c-141.624889 0-257.479111-97.820444-257.479111-216.746666a33.137778 33.137778 0 0 0-35.726222-29.866667c-18.204444-1.422222-34.133333 11.918222-35.555556 29.752889v0.113778c0 142.592 128.654222 260.209778 293.205333 275.000889V859.022222c1.251556 16.042667 15.445333 28.103111 31.800889 27.022222h5.973334a29.696 29.696 0 0 0 31.800888-27.022222V738.417778a339.598222 339.598222 0 0 0 207.701334-85.959111 26.709333 26.709333 0 0 0-1.706667-42.979556l1.024 0.199111z m498.261333-143.701333a43.235556 43.235556 0 0 0-30.919111-13.056l-473.059555 0.853333c-24.064 0.142222-43.548444 19.968-43.662222 44.487111v481.194667c0.056889 24.547556 19.541333 44.430222 43.662222 44.544h473.059555c24.149333-0.056889 43.690667-19.968 43.747556-44.544V497.379556a44.970667 44.970667 0 0 0-12.8-31.402667z m-107.548444 215.182222h-14.08s-27.022222-66.986667-59.107556-73.045333a162.702222 162.702222 0 0 0-54.499555-1.991111v280.291555s8.533333 18.915556 23.381333 20.224h33.109334v18.887111h-176.554667v-18.887111h28.16s21.361778-6.058667 21.361778-22.584889v-275.285333a186.254222 186.254222 0 0 0-53.276445 0 87.608889 87.608889 0 0 0-54.414222 71.082667h-14.051556v-108.771556h320.256l-0.284444 110.08z m-129.564444-326.684444C802.133333 194.275556 602.510222 84.48 600.462222 84.48L633.344 19.683556c8.931556 6.229333 232.362667 126.862222 267.377778 321.251555l-69.774222 13.539556z m89.799111-19.712l-41.159111 118.158222-78.933334-95.146667 120.092445-23.011555z" fill="#1296db" p-id="1637"></path></svg>